<?xml version="1.0" encoding="UTF-8" standalone="no"?>
<!DOCTYPE svg PUBLIC "-//W3C//DTD SVG 1.1//EN"
 "http://www.w3.org/Graphics/SVG/1.1/DTD/svg11.dtd">
<!-- Generated by graphviz version 2.43.0 (0)
 -->
<!-- Title: AI_Modular_Architecture Pages: 1 -->
<svg width="564pt" height="364pt"
 viewBox="0.00 0.00 563.50 364.00" xmlns="http://www.w3.org/2000/svg" xmlns:xlink="http://www.w3.org/1999/xlink">
<g id="graph0" class="graph" transform="scale(1 1) rotate(0) translate(4 360)">
<title>AI_Modular_Architecture</title>
<polygon fill="white" stroke="transparent" points="-4,4 -4,-360 559.5,-360 559.5,4 -4,4"/>
<!-- ResumeUpload -->
<g id="node1" class="node">
<title>ResumeUpload</title>
<polygon fill="lightblue" stroke="black" points="103,-356 0,-356 0,-320 103,-320 103,-356"/>
<text text-anchor="middle" x="51.5" y="-341.2" font-family="Helvetica,sans-Serif" font-size="11.00">Resume Upload</text>
<text text-anchor="middle" x="51.5" y="-329.2" font-family="Helvetica,sans-Serif" font-size="11.00">(PDF via API)</text>
</g>
<!-- PDFParser -->
<g id="node2" class="node">
<title>PDFParser</title>
<polygon fill="lightyellow" stroke="black" points="144,-269 25,-269 25,-233 144,-233 144,-269"/>
<text text-anchor="middle" x="84.5" y="-254.2" font-family="Helvetica,sans-Serif" font-size="11.00">PDF Parsing</text>
<text text-anchor="middle" x="84.5" y="-242.2" font-family="Helvetica,sans-Serif" font-size="11.00">(Extract Raw Text)</text>
</g>
<!-- ResumeUpload&#45;&gt;PDFParser -->
<g id="edge1" class="edge">
<title>ResumeUpload&#45;&gt;PDFParser</title>
<path fill="none" stroke="black" d="M55.36,-319.56C57.77,-309.8 61.23,-297.53 65.5,-287 66.68,-284.08 68.05,-281.1 69.49,-278.16"/>
<polygon fill="black" stroke="black" points="72.71,-279.56 74.24,-269.07 66.5,-276.31 72.71,-279.56"/>
</g>
<!-- LLMExtractor -->
<g id="node3" class="node">
<title>LLMExtractor</title>
<polygon fill="lightgreen" stroke="black" points="225,-196 70,-196 70,-160 225,-160 225,-196"/>
<text text-anchor="middle" x="147.5" y="-181.2" font-family="Helvetica,sans-Serif" font-size="11.00">LLM Extraction</text>
<text text-anchor="middle" x="147.5" y="-169.2" font-family="Helvetica,sans-Serif" font-size="11.00">(Structured Data w/ LLM)</text>
</g>
<!-- PDFParser&#45;&gt;LLMExtractor -->
<g id="edge2" class="edge">
<title>PDFParser&#45;&gt;LLMExtractor</title>
<path fill="none" stroke="black" d="M99.75,-232.81C107.49,-224.09 117.03,-213.34 125.54,-203.75"/>
<polygon fill="black" stroke="black" points="128.37,-205.83 132.39,-196.03 123.13,-201.19 128.37,-205.83"/>
</g>
<!-- SchemaMapping -->
<g id="node4" class="node">
<title>SchemaMapping</title>
<polygon fill="lightpink" stroke="black" points="349,-109 218,-109 218,-73 349,-73 349,-109"/>
<text text-anchor="middle" x="283.5" y="-94.2" font-family="Helvetica,sans-Serif" font-size="11.00">Schema Mapping</text>
<text text-anchor="middle" x="283.5" y="-82.2" font-family="Helvetica,sans-Serif" font-size="11.00">(Pydantic Validation)</text>
</g>
<!-- LLMExtractor&#45;&gt;SchemaMapping -->
<g id="edge3" class="edge">
<title>LLMExtractor&#45;&gt;SchemaMapping</title>
<path fill="none" stroke="black" d="M175.02,-159.8C195.85,-146.78 224.65,-128.78 247.34,-114.6"/>
<polygon fill="black" stroke="black" points="249.39,-117.44 256.02,-109.18 245.68,-111.51 249.39,-117.44"/>
</g>
<!-- VectorStore -->
<g id="node5" class="node">
<title>VectorStore</title>
<polygon fill="orange" stroke="black" points="444,-36 297,-36 297,0 444,0 444,-36"/>
<text text-anchor="middle" x="370.5" y="-21.2" font-family="Helvetica,sans-Serif" font-size="11.00">Vector Storage</text>
<text text-anchor="middle" x="370.5" y="-9.2" font-family="Helvetica,sans-Serif" font-size="11.00">(Summaries, Metadata)</text>
</g>
<!-- SchemaMapping&#45;&gt;VectorStore -->
<g id="edge4" class="edge">
<title>SchemaMapping&#45;&gt;VectorStore</title>
<path fill="none" stroke="black" d="M304.56,-72.81C315.67,-63.74 329.48,-52.48 341.58,-42.6"/>
<polygon fill="black" stroke="black" points="344.1,-45.06 349.63,-36.03 339.67,-39.64 344.1,-45.06"/>
</g>
<!-- SimilaritySearch -->
<g id="node7" class="node">
<title>SimilaritySearch</title>
<polygon fill="gold" stroke="black" points="520,-269 327,-269 327,-233 520,-233 520,-269"/>
<text text-anchor="middle" x="423.5" y="-254.2" font-family="Helvetica,sans-Serif" font-size="11.00">Similarity Search</text>
<text text-anchor="middle" x="423.5" y="-242.2" font-family="Helvetica,sans-Serif" font-size="11.00">(Relevant Docs from Vector DB)</text>
</g>
<!-- VectorStore&#45;&gt;SimilaritySearch -->
<g id="edge7" class="edge">
<title>VectorStore&#45;&gt;SimilaritySearch</title>
<path fill="none" stroke="gray" stroke-dasharray="5,2" d="M374.46,-36.25C383.59,-76.03 406.18,-174.49 417.22,-222.63"/>
<polygon fill="gray" stroke="gray" points="413.87,-223.67 419.52,-232.64 420.69,-222.11 413.87,-223.67"/>
<text text-anchor="middle" x="477" y="-130.8" font-family="Times,serif" font-size="14.00"> context for questions</text>
</g>
<!-- QueryInterface -->
<g id="node6" class="node">
<title>QueryInterface</title>
<polygon fill="lightcyan" stroke="black" points="498.5,-356 348.5,-356 348.5,-320 498.5,-320 498.5,-356"/>
<text text-anchor="middle" x="423.5" y="-341.2" font-family="Helvetica,sans-Serif" font-size="11.00">Chatbot Query Interface</text>
<text text-anchor="middle" x="423.5" y="-329.2" font-family="Helvetica,sans-Serif" font-size="11.00">(Question Handling)</text>
</g>
<!-- QueryInterface&#45;&gt;SimilaritySearch -->
<g id="edge5" class="edge">
<title>QueryInterface&#45;&gt;SimilaritySearch</title>
<path fill="none" stroke="black" d="M423.5,-319.8C423.5,-308.16 423.5,-292.55 423.5,-279.24"/>
<polygon fill="black" stroke="black" points="427,-279.18 423.5,-269.18 420,-279.18 427,-279.18"/>
</g>
<!-- LLMResponse -->
<g id="node8" class="node">
<title>LLMResponse</title>
<polygon fill="lightgrey" stroke="black" points="384.5,-196 254.5,-196 254.5,-160 384.5,-160 384.5,-196"/>
<text text-anchor="middle" x="319.5" y="-181.2" font-family="Helvetica,sans-Serif" font-size="11.00">LLM Response</text>
<text text-anchor="middle" x="319.5" y="-169.2" font-family="Helvetica,sans-Serif" font-size="11.00">(Contextual Answer)</text>
</g>
<!-- SimilaritySearch&#45;&gt;LLMResponse -->
<g id="edge6" class="edge">
<title>SimilaritySearch&#45;&gt;LLMResponse</title>
<path fill="none" stroke="black" d="M398.59,-232.99C384.93,-223.67 367.8,-211.97 352.98,-201.86"/>
<polygon fill="black" stroke="black" points="354.8,-198.86 344.57,-196.11 350.85,-204.64 354.8,-198.86"/>
</g>
<!-- Monitoring -->
<g id="node9" class="node">
<title>Monitoring</title>
<polygon fill="wheat" stroke="black" points="252.5,-356 134.5,-356 134.5,-320 252.5,-320 252.5,-356"/>
<text text-anchor="middle" x="193.5" y="-341.2" font-family="Helvetica,sans-Serif" font-size="11.00">Monitoring &amp; Logs</text>
<text text-anchor="middle" x="193.5" y="-329.2" font-family="Helvetica,sans-Serif" font-size="11.00">(Errors, Feedback)</text>
</g>
<!-- Monitoring&#45;&gt;PDFParser -->
<g id="edge8" class="edge">
<title>Monitoring&#45;&gt;PDFParser</title>
<path fill="none" stroke="gray" stroke-dasharray="5,2" d="M134.49,-324.33C112.81,-318.39 91.96,-310.7 85.5,-302 80.75,-295.6 79.28,-287.36 79.34,-279.43"/>
<polygon fill="gray" stroke="gray" points="82.84,-279.6 80.17,-269.35 75.86,-279.03 82.84,-279.6"/>
<text text-anchor="middle" x="138.5" y="-290.8" font-family="Times,serif" font-size="14.00"> error tracking</text>
</g>
<!-- Monitoring&#45;&gt;LLMResponse -->
<g id="edge9" class="edge">
<title>Monitoring&#45;&gt;LLMResponse</title>
<path fill="none" stroke="gray" stroke-dasharray="5,2" d="M192.63,-319.69C192.41,-297.42 195.17,-258.56 214.5,-233 225.04,-219.06 240.21,-208.41 255.75,-200.42"/>
<polygon fill="gray" stroke="gray" points="257.42,-203.5 264.92,-196.01 254.39,-197.19 257.42,-203.5"/>
<text text-anchor="middle" x="266" y="-247.3" font-family="Times,serif" font-size="14.00"> feedback loop</text>
</g>
</g>
</svg>
